REM DIRINDEX 1\2\3,1\2\4,1\2\5,1\2\6
REM DIRNAME cjc157,folder01,folder02,folder03,folder04,folder05
TITLE ""
FILE "018 018.mp3" MP3
  TRACK 01 AUDIO
    TITLE "0:"
    INDEX 01 00:00:00
  TRACK 02 AUDIO
    TITLE "3:cjc157_0638"
    INDEX 01 00:00:07
  TRACK 03 AUDIO
    TITLE "0:"
    INDEX 01 00:01:48
  TRACK 04 AUDIO
    TITLE "4:cjc157_0639"
    INDEX 01 00:02:24
  TRACK 05 AUDIO
    TITLE "0:"
    INDEX 01 00:03:39
  TRACK 06 AUDIO
    TITLE "5:cjc157_0640"
    INDEX 01 00:04:11
  TRACK 07 AUDIO
    TITLE "0:"
    INDEX 01 00:06:20
  TRACK 08 AUDIO
    TITLE "5:cjc157_0641"
    INDEX 01 00:06:65
  TRACK 09 AUDIO
    TITLE "0:"
    INDEX 01 00:09:16
  TRACK 10 AUDIO
    TITLE "3:cjc157_0642"
    INDEX 01 00:10:04
  TRACK 11 AUDIO
    TITLE "0:"
    INDEX 01 00:11:56
  TRACK 12 AUDIO
    TITLE "4:cjc157_0643"
    INDEX 01 00:12:28
  TRACK 13 AUDIO
    TITLE "0:"
    INDEX 01 00:13:45
  TRACK 14 AUDIO
    TITLE "5:cjc157_0644"
    INDEX 01 00:14:13
  TRACK 15 AUDIO
    TITLE "0:"
    INDEX 01 00:17:10
  TRACK 16 AUDIO
    TITLE "5:cjc157_0645"
    INDEX 01 00:17:51
  TRACK 17 AUDIO
    TITLE "0:"
    INDEX 01 00:19:56
  TRACK 18 AUDIO
    TITLE "5:cjc157_0646"
    INDEX 01 00:20:30
  TRACK 19 AUDIO
    TITLE "0:"
    INDEX 01 00:23:51
  TRACK 20 AUDIO
    TITLE "3:cjc157_0647"
    INDEX 01 00:24:18
  TRACK 21 AUDIO
    TITLE "0:"
    INDEX 01 00:25:45
  TRACK 22 AUDIO
    TITLE "4:cjc157_0648"
    INDEX 01 00:26:15
  TRACK 23 AUDIO
    TITLE "0:"
    INDEX 01 00:27:32
  TRACK 24 AUDIO
    TITLE "5:cjc157_0649"
    INDEX 01 00:28:04
  TRACK 25 AUDIO
    TITLE "0:"
    INDEX 01 00:29:74
  TRACK 26 AUDIO
    TITLE "5:cjc157_0650"
    INDEX 01 00:30:46
  TRACK 27 AUDIO
    TITLE "0:"
    INDEX 01 00:33:01
  TRACK 28 AUDIO
    TITLE "5:cjc157_0651"
    INDEX 01 00:33:48
  TRACK 29 AUDIO
    TITLE "0:"
    INDEX 01 00:35:41
  TRACK 30 AUDIO
    TITLE "3:cjc157_0652"
    INDEX 01 00:36:13
  TRACK 31 AUDIO
    TITLE "0:"
    INDEX 01 00:37:22
  TRACK 32 AUDIO
    TITLE "4:cjc157_0653"
    INDEX 01 00:37:67
  TRACK 33 AUDIO
    TITLE "0:"
    INDEX 01 00:39:07
  TRACK 34 AUDIO
    TITLE "5:cjc157_0654"
    INDEX 01 00:39:56
  TRACK 35 AUDIO
    TITLE "0:"
    INDEX 01 00:41:63
  TRACK 36 AUDIO
    TITLE "5:cjc157_0655"
    INDEX 01 00:42:33
  TRACK 37 AUDIO
    TITLE "0:"
    INDEX 01 00:43:74
  TRACK 38 AUDIO
    TITLE "3:cjc157_0656"
    INDEX 01 00:44:60
  TRACK 39 AUDIO
    TITLE "0:"
    INDEX 01 00:46:33
  TRACK 40 AUDIO
    TITLE "4:cjc157_0657"
    INDEX 01 00:47:03
  TRACK 41 AUDIO
    TITLE "0:"
    INDEX 01 00:48:04
  TRACK 42 AUDIO
    TITLE "5:cjc157_0658"
    INDEX 01 00:48:49
  TRACK 43 AUDIO
    TITLE "0:"
    INDEX 01 00:50:25
  TRACK 44 AUDIO
    TITLE "5:cjc157_0659"
    INDEX 01 00:50:70
  TRACK 45 AUDIO
    TITLE "0:"
    INDEX 01 00:53:21
  TRACK 46 AUDIO
    TITLE "5:cjc157_0660"
    INDEX 01 00:53:68
  TRACK 47 AUDIO
    TITLE "0:"
    INDEX 01 00:55:73
  TRACK 48 AUDIO
    TITLE "5:cjc157_0661"
    INDEX 01 00:56:45
  TRACK 49 AUDIO
    TITLE "0:"
    INDEX 01 00:58:62
  TRACK 50 AUDIO
    TITLE "5:cjc157_0662"
    INDEX 01 00:59:34
  TRACK 51 AUDIO
    TITLE "0:"
    INDEX 01 01:01:64
  TRACK 52 AUDIO
    TITLE "5:cjc157_0663"
    INDEX 01 01:02:36
  TRACK 53 AUDIO
    TITLE "0:"
    INDEX 01 01:04:31
  TRACK 54 AUDIO
    TITLE "3:cjc157_0664"
    INDEX 01 01:05:05
  TRACK 55 AUDIO
    TITLE "0:"
    INDEX 01 01:06:22
  TRACK 56 AUDIO
    TITLE "4:cjc157_0665"
    INDEX 01 01:06:71
  TRACK 57 AUDIO
    TITLE "0:"
    INDEX 01 01:08:09
  TRACK 58 AUDIO
    TITLE "5:cjc157_0666"
    INDEX 01 01:08:56
  TRACK 59 AUDIO
    TITLE "0:"
    INDEX 01 01:11:64
  TRACK 60 AUDIO
    TITLE "3:cjc157_0667"
    INDEX 01 01:12:30
  TRACK 61 AUDIO
    TITLE "0:"
    INDEX 01 01:13:67
  TRACK 62 AUDIO
    TITLE "4:cjc157_0668"
    INDEX 01 01:14:39
  TRACK 63 AUDIO
    TITLE "0:"
    INDEX 01 01:15:60
  TRACK 64 AUDIO
    TITLE "5:cjc157_0669"
    INDEX 01 01:16:30
  TRACK 65 AUDIO
    TITLE "0:"
    INDEX 01 01:18:72
  TRACK 66 AUDIO
    TITLE "5:cjc157_0670"
    INDEX 01 01:19:42
  TRACK 67 AUDIO
    TITLE "0:"
    INDEX 01 01:22:21
  TRACK 68 AUDIO
    TITLE "3:cjc157_0671"
    INDEX 01 01:22:68
  TRACK 69 AUDIO
    TITLE "0:"
    INDEX 01 01:24:39
  TRACK 70 AUDIO
    TITLE "4:cjc157_0672"
    INDEX 01 01:25:11
  TRACK 71 AUDIO
    TITLE "0:"
    INDEX 01 01:26:15
  TRACK 72 AUDIO
    TITLE "5:cjc157_0673"
    INDEX 01 01:26:58
  TRACK 73 AUDIO
    TITLE "0:"
    INDEX 01 01:29:39
  TRACK 74 AUDIO
    TITLE "5:cjc157_0674"
    INDEX 01 01:30:07
  TRACK 75 AUDIO
    TITLE "0:"
    INDEX 01 01:33:62
  TRACK 76 AUDIO
    TITLE "5:cjc157_0675"
    INDEX 01 01:34:28
  TRACK 77 AUDIO
    TITLE "0:"
    INDEX 01 01:36:05
  TRACK 78 AUDIO
    TITLE "3:cjc157_0676"
    INDEX 01 01:36:50
  TRACK 79 AUDIO
    TITLE "0:"
    INDEX 01 01:38:22
  TRACK 80 AUDIO
    TITLE "4:cjc157_0677"
    INDEX 01 01:38:69
  TRACK 81 AUDIO
    TITLE "0:"
    INDEX 01 01:40:13
  TRACK 82 AUDIO
    TITLE "5:cjc157_0678"
    INDEX 01 01:40:56
  TRACK 83 AUDIO
    TITLE "0:"
    INDEX 01 01:43:03
  TRACK 84 AUDIO
    TITLE "3:cjc157_0679"
    INDEX 01 01:43:56
  TRACK 85 AUDIO
    TITLE "0:"
    INDEX 01 01:45:18
  TRACK 86 AUDIO
    TITLE "4:cjc157_0680"
    INDEX 01 01:45:59
  TRACK 87 AUDIO
    TITLE "0:"
    INDEX 01 01:46:63
  TRACK 88 AUDIO
    TITLE "5:cjc157_0681"
    INDEX 01 01:47:33
  TRACK 89 AUDIO
    TITLE "0:"
    INDEX 01 01:49:65
  TRACK 90 AUDIO
    TITLE "5:cjc157_0682"
    INDEX 01 01:50:37
  TRACK 91 AUDIO
    TITLE "0:"
    INDEX 01 01:52:65
  TRACK 92 AUDIO
    TITLE "5:cjc157_0683"
    INDEX 01 01:53:31
  TRACK 93 AUDIO
    TITLE "0:"
    INDEX 01 01:55:54
